<svg xmlns="http://www.w3.org/2000/svg" viewBox="116.2 -1490.0 1180.8 1490.0"><path d="M116.1591796875 0.0V-1490.0H733.84033203125Q900.48046875 -1490.0 1013.0006103515625 -1442.2000732421875Q1125.520751953125 -1394.400146484375 1182.2408447265625 -1309.460205078125Q1238.9609375 -1224.520263671875 1238.9609375 -1112.480224609375Q1238.9609375 -1027.120361328125 1203.44091796875 -960.4403076171875Q1167.9208984375 -893.76025390625 1105.580810546875 -850.3001708984375Q1043.24072265625 -806.840087890625 961.5205078125 -789.60009765625V-774.080078125Q1051.28076171875 -770.840087890625 1127.620849609375 -726.4600830078125Q1203.9609375 -682.080078125 1250.4609375 -602.9801025390625Q1296.9609375 -523.880126953125 1296.9609375 -416.000244140625Q1296.9609375 -296.400146484375 1236.7208251953125 -202.2200927734375Q1176.480712890625 -108.0400390625 1061.16064453125 -54.02001953125Q945.840576171875 0.0 780.480712890625 0.0ZM468.80126953125 -285.04150390625H697.19970703125Q815.718994140625 -285.04150390625 872.498779296875 -330.76123046875Q929.278564453125 -376.48095703125 929.278564453125 -456.000732421875Q929.278564453125 -514.280517578125 901.918701171875 -557.1402587890625Q874.558837890625 -600.0 824.05908203125 -623.559814453125Q773.559326171875 -647.11962890625 704.15966796875 -647.11962890625H468.80126953125ZM468.80126953125 -875.5205078125H673.6796875Q733.159423828125 -875.5205078125 779.5391845703125 -895.620361328125Q825.9189453125 -915.72021484375 852.518798828125 -953.4599609375Q879.11865234375 -991.19970703125 879.11865234375 -1044.639404296875Q879.11865234375 -1119.59912109375 825.298828125 -1163.798828125Q771.47900390625 -1207.99853515625 679.6796875 -1207.99853515625H468.80126953125Z" fill="currentColor"/></svg>