<svg xmlns="http://www.w3.org/2000/svg" viewBox="116.2 -1510.0 9374.9 1627.2"><path d="M116.1591796875 0.0V-1490.0H733.84033203125Q900.48046875 -1490.0 1013.0006103515625 -1442.2000732421875Q1125.520751953125 -1394.400146484375 1182.2408447265625 -1309.460205078125Q1238.9609375 -1224.520263671875 1238.9609375 -1112.480224609375Q1238.9609375 -1027.120361328125 1203.44091796875 -960.4403076171875Q1167.9208984375 -893.76025390625 1105.580810546875 -850.3001708984375Q1043.24072265625 -806.840087890625 961.5205078125 -789.60009765625V-774.080078125Q1051.28076171875 -770.840087890625 1127.620849609375 -726.4600830078125Q1203.9609375 -682.080078125 1250.4609375 -602.9801025390625Q1296.9609375 -523.880126953125 1296.9609375 -416.000244140625Q1296.9609375 -296.400146484375 1236.7208251953125 -202.2200927734375Q1176.480712890625 -108.0400390625 1061.16064453125 -54.02001953125Q945.840576171875 0.0 780.480712890625 0.0ZM468.80126953125 -285.04150390625H697.19970703125Q815.718994140625 -285.04150390625 872.498779296875 -330.76123046875Q929.278564453125 -376.48095703125 929.278564453125 -456.000732421875Q929.278564453125 -514.280517578125 901.918701171875 -557.1402587890625Q874.558837890625 -600.0 824.05908203125 -623.559814453125Q773.559326171875 -647.11962890625 704.15966796875 -647.11962890625H468.80126953125ZM468.80126953125 -875.5205078125H673.6796875Q733.159423828125 -875.5205078125 779.5391845703125 -895.620361328125Q825.9189453125 -915.72021484375 852.518798828125 -953.4599609375Q879.11865234375 -991.19970703125 879.11865234375 -1044.639404296875Q879.11865234375 -1119.59912109375 825.298828125 -1163.798828125Q771.47900390625 -1207.99853515625 679.6796875 -1207.99853515625H468.80126953125ZM1727.239443359375 19.919921875Q1620.47943359375 19.919921875 1537.01947265625 -16.6600341796875Q1453.55951171875 -53.239990234375 1406.359560546875 -126.43994140625Q1359.159609375 -199.639892578125 1359.159609375 -310.39990234375Q1359.159609375 -403.35986328125 1391.839541015625 -467.159912109375Q1424.51947265625 -530.9599609375 1482.3193994140624 -570.780029296875Q1540.119326171875 -610.60009765625 1615.2193017578124 -631.7801513671875Q1690.31927734375 -652.960205078125 1775.159365234375 -659.920166015625Q1870.599306640625 -668.360107421875 1928.6592431640624 -677.64013671875Q1986.7191796875 -686.920166015625 2013.419130859375 -705.8201904296875Q2040.11908203125 -724.72021484375 2040.11908203125 -758.880126953125V-763.360107421875Q2040.11908203125 -802.19970703125 2022.0991845703124 -829.0394287109375Q2004.079287109375 -855.879150390625 1970.319521484375 -870.0989990234375Q1936.559755859375 -884.31884765625 1888.20013671875 -884.31884765625Q1840.120546875 -884.31884765625 1802.88080078125 -869.958984375Q1765.6410546875 -855.59912109375 1741.541201171875 -829.8792724609375Q1717.44134765625 -804.159423828125 1707.801455078125 -768.95947265625L1391.159609375 -809.999267578125Q1413.639345703125 -905.919189453125 1478.27923828125 -978.2393798828125Q1542.919130859375 -1050.5595703125 1647.2593408203124 -1091.27978515625Q1751.59955078125 -1132.0 1891.560244140625 -1132.0Q1995.440859375 -1132.0 2085.941103515625 -1107.4798583984375Q2176.44134765625 -1082.959716796875 2244.4613671875 -1035.359619140625Q2312.48138671875 -987.759521484375 2350.661318359375 -918.379638671875Q2388.84125 -848.999755859375 2388.84125 -759.040283203125V0.0H2060.599306640625V-156.56005859375H2051.639345703125Q2021.23919921875 -99.31982421875 1975.0591455078124 -60.099853515625Q1928.879091796875 -20.8798828125 1867.19916015625 -0.47998046875Q1805.519228515625 19.919921875 1727.239443359375 19.919921875ZM1833.48041015625 -211.281005859375Q1892.4398828125 -211.281005859375 1939.7796044921874 -235.080810546875Q1987.119326171875 -258.880615234375 2015.1392236328124 -300.8603515625Q2043.15912109375 -342.840087890625 2043.15912109375 -397.919921875V-505.039306640625Q2028.359072265625 -497.359375 2005.7992578125 -490.2794189453125Q1983.239443359375 -483.199462890625 1956.25970703125 -477.4794921875Q1929.279970703125 -471.759521484375 1902.2601953125 -467.3995361328125Q1875.240419921875 -463.03955078125 1850.760439453125 -459.279541015625Q1799.440615234375 -452.03955078125 1763.46087890625 -434.819580078125Q1727.481142578125 -417.599609375 1708.681337890625 -390.73974609375Q1689.881533203125 -363.8798828125 1689.881533203125 -326.480224609375Q1689.881533203125 -289.00048828125 1708.48138671875 -263.3006591796875Q1727.081240234375 -237.600830078125 1759.320986328125 -224.44091796875Q1791.560732421875 -211.281005859375 1833.48041015625 -211.281005859375ZM2558.559453125 0.0V-1118.0H2896.7215625V-914.07958984375H2908.7215625Q2938.961552734375 -1024.919921875 3008.58142578125 -1078.699951171875Q3078.201298828125 -1132.47998046875 3169.84119140625 -1132.47998046875Q3194.40125 -1132.47998046875 3220.7612353515624 -1129.199951171875Q3247.121220703125 -1125.919921875 3269.201298828125 -1119.599853515625V-816.23828125Q3244.481083984375 -825.078369140625 3203.7409716796874 -829.4583740234375Q3163.000859375 -833.83837890625 3130.800908203125 -833.83837890625Q3066.76111328125 -833.83837890625 3015.8012744140624 -805.658447265625Q2964.841435546875 -777.478515625 2936.0615283203124 -727.338623046875Q2907.28162109375 -677.19873046875 2907.28162109375 -610.31884765625V0.0ZM4059.361396484375 16.39990234375Q3974.641669921875 16.39990234375 3912.3017041015623 -12.1199951171875Q3849.96173828125 -40.639892578125 3808.88166015625 -85.619873046875Q3767.80158203125 -130.599853515625 3745.76154296875 -181.360107421875H3733.361640625V0.0H3389.119453125V-1490.0H3737.84162109375V-926.079833984375H3745.76154296875Q3767.041572265625 -976.60009765625 3807.121650390625 -1024.0001220703125Q3847.201728515625 -1071.400146484375 3910.0617138671873 -1101.7000732421875Q3972.92169921875 -1132.0 4062.1614453125 -1132.0Q4180.121162109375 -1132.0 4281.30109375 -1070.360107421875Q4382.481025390625 -1008.72021484375 4444.881049804688 -881.500244140625Q4507.28107421875 -754.2802734375 4507.28107421875 -557.52001953125Q4507.28107421875 -368.119873046875 4447.28107421875 -240.39990234375Q4387.28107421875 -112.679931640625 4285.721137695313 -48.1400146484375Q4184.161201171875 16.39990234375 4059.361396484375 16.39990234375ZM3940.40021484375 -256.321533203125Q4008.159736328125 -256.321533203125 4054.3394238281253 -293.8212890625Q4100.519111328125 -331.321044921875 4124.61896484375 -399.460693359375Q4148.718818359375 -467.600341796875 4148.718818359375 -558.0Q4148.718818359375 -648.919677734375 4124.738959960938 -716.579345703125Q4100.7591015625 -784.239013671875 4054.5794140625003 -821.7587890625Q4008.3997265625 -859.278564453125 3940.40021484375 -859.278564453125Q3873.88068359375 -859.278564453125 3826.6809765625 -822.478759765625Q3779.48126953125 -785.678955078125 3754.62140625 -718.25927734375Q3729.76154296875 -650.839599609375 3729.76154296875 -558.0Q3729.76154296875 -466.680419921875 3754.7414013671873 -399.040771484375Q3779.721259765625 -331.401123046875 3827.0409619140623 -293.861328125Q3874.3606640625 -256.321533203125 3940.40021484375 -256.321533203125ZM5153.84009765625 20.9599609375Q4978.919931640625 20.9599609375 4852.299814453125 -48.3800048828125Q4725.679697265625 -117.719970703125 4657.999643554687 -246.719970703125Q4590.31958984375 -375.719970703125 4590.31958984375 -554.56005859375Q4590.31958984375 -727.320068359375 4658.019663085937 -857.1800537109375Q4725.719736328125 -987.0400390625 4849.479868164062 -1059.52001953125Q4973.24 -1132 5141.200205078125 -1132.0Q5259.080576171875 -1132.0 5357.740732421875 -1094.89990234375Q5456.400888671875 -1057.7998046875 5528.800913085937 -985.459716796875Q5601.2009375 -913.11962890625 5640.920908203125 -806.879638671875Q5680.64087890625 -700.6396484375 5680.64087890625 -561.599853515625V-473.6796875H4713.839609375V-677.3603515625H5514.479990234375L5351.438974609375 -628.96044921875Q5351.438974609375 -707.0400390625 5327.959116210937 -762.899658203125Q5304.4792578125 -818.75927734375 5258.519541015625 -849.01904296875Q5212.55982421875 -879.27880859375 5144.240244140625 -879.27880859375Q5075.9206640625 -879.27880859375 5029.000986328125 -848.779052734375Q4982.08130859375 -818.279296875 4957.761484375 -763.859619140625Q4933.44166015625 -709.43994140625 4933.44166015625 -635.920166015625V-490.07958984375Q4933.44166015625 -404.080078125 4961.621469726562 -346.46044921875Q4989.801279296875 -288.8408203125 5041.080942382812 -260.301025390625Q5092.36060546875 -231.76123046875 5160.160166015625 -231.76123046875Q5207.159921875 -231.76123046875 5245.579721679687 -245.0611572265625Q5283.999521484375 -258.361083984375 5311.599375 -283.94091796875Q5339.199228515625 -309.520751953125 5353.359140625 -346.760498046875L5664.1608984375 -295.720458984375Q5636.64087890625 -199.560302734375 5567.800791015625 -128.3402099609375Q5498.960703125 -57.1201171875 5394.540537109375 -18.080078125Q5290.12037109375 20.9599609375 5153.84009765625 20.9599609375ZM5802.239453124999 0.0V-1118.0H6140.401562499999V-914.07958984375H6152.401562499999Q6182.641552734374 -1024.919921875 6252.261425781249 -1078.699951171875Q6321.881298828124 -1132.47998046875 6413.521191406249 -1132.47998046875Q6438.081249999999 -1132.47998046875 6464.441235351562 -1129.199951171875Q6490.801220703124 -1125.919921875 6512.881298828124 -1119.599853515625V-816.23828125Q6488.161083984374 -825.078369140625 6447.420971679687 -829.4583740234375Q6406.680859374999 -833.83837890625 6374.480908203124 -833.83837890625Q6310.441113281249 -833.83837890625 6259.481274414062 -805.658447265625Q6208.521435546874 -777.478515625 6179.741528320312 -727.338623046875Q6150.961621093749 -677.19873046875 6150.961621093749 -610.31884765625V0.0ZM6633.519179687499 0.0V-1490.0H6986.161269531249V-905.28076171875H7581.198867187499V-1490.0H7933.840957031249V0.0H7581.198867187499V-617.19921875H6986.161269531249V0.0ZM8672.919511718748 -531.36083984375H8959.080644531248L9085.560136718748 -371.12158203125L9241.561601562498 -191.52001953125L9491.081621093748 117.19970703125H9171.480058593748L8997.319902343748 -91.68017578125L8897.559160156248 -235.84130859375ZM8780.520097656248 20.0Q8580.399980468748 20.0 8419.499833984373 -69.0799560546875Q8258.599687499998 -158.159912109375 8164.999589843748 -328.89990234375Q8071.399492187498 -499.639892578125 8071.399492187498 -744.0Q8071.399492187498 -990.1201171875 8164.999589843748 -1161.2401123046875Q8258.599687499998 -1332.360107421875 8419.499833984373 -1421.1800537109375Q8580.399980468748 -1510.0 8780.520097656248 -1510.0Q8980.640214843748 -1510.0 9141.040361328123 -1421.1800537109375Q9301.440507812498 -1332.360107421875 9395.300615234373 -1161.2401123046875Q9489.160722656248 -990.1201171875 9489.160722656248 -744.0Q9489.160722656248 -498.8798828125 9395.300615234373 -328.139892578125Q9301.440507812498 -157.39990234375 9141.040361328123 -68.699951171875Q8980.640214843748 20.0 8780.520097656248 20.0ZM8780.520097656248 -289.76171875Q8889.199785156248 -289.76171875 8967.059404296873 -342.0615234375Q9044.919023437498 -394.361328125 9086.758745117186 -495.8409423828125Q9128.598466796873 -597.320556640625 9128.598466796873 -744.0Q9128.598466796873 -891.91943359375 9086.758745117186 -993.779052734375Q9044.919023437498 -1095.638671875 8967.059404296873 -1147.9384765625Q8889.199785156248 -1200.23828125 8780.520097656248 -1200.23828125Q8672.360429687498 -1200.23828125 8594.380815429686 -1147.8184814453125Q8516.401201171873 -1095.398681640625 8474.181474609373 -993.5390625Q8431.961748046873 -891.679443359375 8431.961748046873 -744.0Q8431.961748046873 -597.320556640625 8474.181474609373 -495.9609375Q8516.401201171873 -394.601318359375 8594.380815429686 -342.1815185546875Q8672.360429687498 -289.76171875 8780.520097656248 -289.76171875Z" fill="currentColor"/></svg>